<svg id="Capa_1" enable-background="new 0 0 512 512" height="512" viewBox="0 0 512 512" width="512" xmlns="http://www.w3.org/2000/svg" xmlns:xlink="http://www.w3.org/1999/xlink"><linearGradient id="SVGID_1_" gradientUnits="userSpaceOnUse" x1="256" x2="256" y1="512" y2="0"><stop offset="0" stop-color="#ffc8d1"/><stop offset="1" stop-color="#fff6f7"/></linearGradient><linearGradient id="SVGID_2_" gradientUnits="userSpaceOnUse" x1="255.917" x2="255.917" y1="140.59" y2="371.41"><stop offset="0" stop-color="#fd3a84"/><stop offset="1" stop-color="#ffa68d"/></linearGradient><g><g><circle cx="256" cy="256" fill="url(#SVGID_1_)" r="256"/></g><g><g><path d="m406.161 341.378c-1.37-3.321-4.612-5.479-8.201-5.479h-284.086c-3.589 0-6.832 2.159-8.202 5.479s-.607 7.135 1.925 9.675l17.755 17.755c1.665 1.665 3.918 2.601 6.277 2.601h248.575c2.358 0 4.612-.936 6.277-2.601l17.755-17.755c2.532-2.54 3.295-6.354 1.925-9.675zm-150.244-129.766c9.806 0 17.755-7.95 17.755-17.755 0-6.501-3.666-11.941-8.878-15.034v-11.599c0-4.898 3.988-8.878 8.878-8.878 4.907 0 8.877-3.971 8.877-8.878s-3.971-8.878-8.877-8.878c-14.687 0-26.633 11.947-26.633 26.633v11.599c-5.211 3.093-8.877 8.533-8.877 15.034 0 9.806 7.948 17.756 17.755 17.756zm114.768 36.898c-3.624-21.397-21.986-36.898-43.747-36.898-14.575 0-27.415 7.15-35.511 18.026-3.013-4.047-6.851-7.343-11.021-10.181-6.382 6.105-14.984 9.91-24.489 9.91s-18.108-3.805-24.49-9.91c-4.17 2.838-8.008 6.135-11.021 10.181-8.096-10.876-20.936-18.026-35.511-18.026-21.882 0-40.314 15.657-43.678 36.612l-16.595 69.92h262.589z" fill="url(#SVGID_2_)"/></g></g></g></svg>